<?xml version="1.0" encoding="UTF-8" standalone="no"?>
<svg
   xmlns:dc="http://purl.org/dc/elements/1.1/"
   xmlns:cc="http://creativecommons.org/ns#"
   xmlns:rdf="http://www.w3.org/1999/02/22-rdf-syntax-ns#"
   xmlns:svg="http://www.w3.org/2000/svg"
   xmlns="http://www.w3.org/2000/svg"
   xmlns:sodipodi="http://sodipodi.sourceforge.net/DTD/sodipodi-0.dtd"
   xmlns:inkscape="http://www.inkscape.org/namespaces/inkscape"
   id="svg2"
   version="1.1"
   inkscape:version="1.0.1 (0767f8302a, 2020-10-17)"
   width="60"
   height="60"
   viewBox="0 0 60 60"
   sodipodi:docname="icon.svg"
   inkscape:export-filename="icon.png"
   inkscape:export-xdpi="204.8"
   inkscape:export-ydpi="204.8">
  <metadata
     id="metadata8">
    <rdf:RDF>
      <cc:Work
         rdf:about="">
        <dc:format>image/svg+xml</dc:format>
        <dc:type
           rdf:resource="http://purl.org/dc/dcmitype/StillImage" />
        <dc:title />
      </cc:Work>
    </rdf:RDF>
  </metadata>
  <defs
     id="defs6" />
  <sodipodi:namedview
     pagecolor="#ffffff"
     bordercolor="#666666"
     borderopacity="1"
     objecttolerance="10"
     gridtolerance="10"
     guidetolerance="10"
     inkscape:pageopacity="0"
     inkscape:pageshadow="2"
     inkscape:window-width="1920"
     inkscape:window-height="1053"
     id="namedview4"
     showgrid="false"
     inkscape:zoom="7.9999999"
     inkscape:cx="44.473337"
     inkscape:cy="32.2966"
     inkscape:window-x="0"
     inkscape:window-y="27"
     inkscape:window-maximized="1"
     inkscape:current-layer="svg2"
     showguides="true"
     inkscape:guide-bbox="true"
     inkscape:document-rotation="0">
    <sodipodi:guide
       position="0,41.75"
       orientation="1,0"
       id="guide3360"
       inkscape:locked="false" />
    <sodipodi:guide
       position="60,60.074219"
       orientation="1,0"
       id="guide3362"
       inkscape:locked="false" />
    <sodipodi:guide
       position="0.17578125,60"
       orientation="0,1"
       id="guide3364"
       inkscape:locked="false" />
    <sodipodi:guide
       position="58.71196,-0.0055242717"
       orientation="0,1"
       id="guide3366"
       inkscape:locked="false" />
    <sodipodi:guide
       position="47.787343,10.392581"
       orientation="-0.8660254,0.5"
       id="guide3347"
       inkscape:locked="false"
       inkscape:label=""
       inkscape:color="rgb(0,0,255)" />
    <sodipodi:guide
       position="14.040347,48.50317"
       orientation="-0.8660254,0.5"
       id="guide23"
       inkscape:locked="false"
       inkscape:label=""
       inkscape:color="rgb(0,0,255)" />
    <sodipodi:guide
       position="36.89784,37.204569"
       orientation="-0.8660254,0.5"
       id="guide848"
       inkscape:locked="false"
       inkscape:label=""
       inkscape:color="rgb(0,0,255)" />
  </sodipodi:namedview>
  <rect
     style="opacity:1;fill:#80e5ff;fill-opacity:1"
     id="rect4147"
     width="60"
     height="60"
     x="0"
     y="0"
     inkscape:export-xdpi="204"
     inkscape:export-ydpi="204" />
  <path
     style="opacity:1;fill:#000000;fill-opacity:0.392157"
     d="m 0,35.815424 v 24.1901 l 41.783994,0 L 47.787343,49.607419 42.448286,16.257863 14.040347,11.49683 Z"
     id="rect4171"
     inkscape:connector-curvature="0"
     sodipodi:nodetypes="ccccccc"
     inkscape:export-xdpi="204"
     inkscape:export-ydpi="204" />
  <g
     id="g4169"
     transform="matrix(0.3061173,0,0,0.3061173,-1.0360053,-1.0457906)"
     style="fill:#ffffff;stroke:none" />
  <rect
     style="opacity:1;fill:#c8beb7;fill-opacity:1;stroke-width:0.459106"
     id="rect847"
     width="27.332047"
     height="27.762333"
     x="16.465595"
     y="18.262808"
     inkscape:export-xdpi="204"
     inkscape:export-ydpi="204" />
  <path
     fill="currentColor"
     d="M 48.077083,38.392929 V 11.277304 c 0,-1.073324 -0.8635,-1.9368283 -1.93683,-1.9368283 H 19.670237 c -4.27716,0 -7.74732,3.4701523 -7.74732,7.7473203 v 25.824408 c 0,4.27716 3.47016,7.74732 7.74732,7.74732 h 26.470016 c 1.07333,0 1.93683,-0.8635 1.93683,-1.93684 v -1.29121 c 0,-0.60526 -0.28245,-1.15403 -0.71824,-1.50912 -0.33895,-1.2428 -0.33895,-4.785581 0,-6.028379 0.43579,-0.347017 0.71824,-0.895786 0.71824,-1.501046 z M 22.252687,20.154443 c 0,-0.266312 0.21789,-0.484205 0.4842,-0.484205 h 17.108666 c 0.26631,0 0.48421,0.217893 0.48421,0.484205 v 1.614028 c 0,0.266312 -0.2179,0.484205 -0.48421,0.484205 H 22.736887 c -0.26631,0 -0.4842,-0.217893 -0.4842,-0.484205 z m 0,5.164884 c 0,-0.266316 0.21789,-0.484209 0.4842,-0.484209 h 17.108666 c 0.26631,0 0.48421,0.217893 0.48421,0.484209 v 1.614025 c 0,0.266312 -0.2179,0.484205 -0.48421,0.484205 H 22.736887 c -0.26631,0 -0.4842,-0.217893 -0.4842,-0.484205 z M 42.702373,45.494644 H 19.670237 c -1.42841,0 -2.58244,-1.15403 -2.58244,-2.58244 0,-1.420346 1.1621,-2.582443 2.58244,-2.582443 h 23.032136 c -0.15333,1.37999 -0.15333,3.784893 0,5.164883 z"
     id="path2-3"
     style="fill:#784421;stroke-width:0.0807012"
     inkscape:export-xdpi="204"
     inkscape:export-ydpi="204" />
</svg>
