<?xml version="1.0" encoding="UTF-8" standalone="no"?>
<!-- Created with Inkscape (http://www.inkscape.org/) -->

<svg
   xmlns:dc="http://purl.org/dc/elements/1.1/"
   xmlns:cc="http://creativecommons.org/ns#"
   xmlns:rdf="http://www.w3.org/1999/02/22-rdf-syntax-ns#"
   xmlns:svg="http://www.w3.org/2000/svg"
   xmlns="http://www.w3.org/2000/svg"
   xmlns:sodipodi="http://sodipodi.sourceforge.net/DTD/sodipodi-0.dtd"
   xmlns:inkscape="http://www.inkscape.org/namespaces/inkscape"
   id="svg2"
   version="1.1"
   inkscape:version="0.92.3 (unknown)"
   width="60"
   height="60"
   viewBox="0 0 60 60"
   sodipodi:docname="icon.svg"
   inkscape:export-filename="icon.png"
   inkscape:export-xdpi="204.8"
   inkscape:export-ydpi="204.8">
  <metadata
     id="metadata8">
    <rdf:RDF>
      <cc:Work
         rdf:about="">
        <dc:format>image/svg+xml</dc:format>
        <dc:type
           rdf:resource="http://purl.org/dc/dcmitype/StillImage" />
        <dc:title />
      </cc:Work>
    </rdf:RDF>
  </metadata>
  <defs
     id="defs6" />
  <sodipodi:namedview
     pagecolor="#ffffff"
     bordercolor="#666666"
     borderopacity="1"
     objecttolerance="10"
     gridtolerance="10"
     guidetolerance="10"
     inkscape:pageopacity="0"
     inkscape:pageshadow="2"
     inkscape:window-width="1920"
     inkscape:window-height="1053"
     id="namedview4"
     showgrid="false"
     inkscape:zoom="7.9999999"
     inkscape:cx="10.5919"
     inkscape:cy="32.788523"
     inkscape:window-x="0"
     inkscape:window-y="27"
     inkscape:window-maximized="1"
     inkscape:current-layer="svg2"
     showguides="true"
     inkscape:guide-bbox="true">
    <sodipodi:guide
       position="0,41.75"
       orientation="1,0"
       id="guide3360"
       inkscape:locked="false" />
    <sodipodi:guide
       position="60,60.074219"
       orientation="1,0"
       id="guide3362"
       inkscape:locked="false" />
    <sodipodi:guide
       position="0.17578125,60"
       orientation="0,1"
       id="guide3364"
       inkscape:locked="false" />
    <sodipodi:guide
       position="58.71196,-0.0055242717"
       orientation="0,1"
       id="guide3366"
       inkscape:locked="false" />
    <sodipodi:guide
       position="49.121825,13.50132"
       orientation="-0.8660254,0.5"
       id="guide3347"
       inkscape:locked="false"
       inkscape:label=""
       inkscape:color="rgb(0,0,255)" />
    <sodipodi:guide
       position="4.1984466,30.013369"
       orientation="-0.8660254,0.5"
       id="guide23"
       inkscape:locked="false"
       inkscape:label=""
       inkscape:color="rgb(0,0,255)" />
    <sodipodi:guide
       position="55.750001,29.375"
       orientation="-0.8660254,0.5"
       id="guide4530"
       inkscape:locked="false"
       inkscape:label=""
       inkscape:color="rgb(0,0,255)" />
  </sodipodi:namedview>
  <rect
     style="opacity:1;fill:#800080;fill-opacity:1"
     id="rect4147"
     width="60"
     height="60"
     x="0"
     y="0"
     inkscape:export-xdpi="204"
     inkscape:export-ydpi="204" />
  <path
     style="opacity:1;fill:#000000;fill-opacity:0.39215686"
     d="m 0,37.258554 v 22.74697 l 41.323645,0 6.376479,-11.044386 0.135184,-4.627487 7.33133,-12.698237 L 29.531212,14.873481 4.1984466,29.986631 Z"
     id="rect4171"
     inkscape:connector-curvature="0"
     sodipodi:nodetypes="ccccccccc"
     inkscape:export-xdpi="204"
     inkscape:export-ydpi="204" />
  <g
     id="g4169"
     transform="matrix(0.3061173,0,0,0.3061173,-1.0360053,-1.0457906)"
     style="fill:#ffffff;stroke:none" />
  <path
     inkscape:connector-curvature="0"
     d="m 47.988635,35.084799 v 12.890775 c 0,1.196421 -0.962534,2.158955 -2.158955,2.158955 H 35.394713 c -0.593712,0 -1.079477,-0.485765 -1.079477,-1.079478 V 38.979918 c 0,-0.593712 -0.485766,-1.079477 -1.079478,-1.079477 h -6.476874 c -0.593712,0 -1.079478,0.485765 -1.079478,1.079477 v 10.075133 c 0,0.593713 -0.485765,1.079478 -1.079477,1.079478 H 14.164962 c -1.196421,0 -2.158955,-0.962534 -2.158955,-2.158955 V 35.084799 c 0,-0.323848 0.143932,-0.629697 0.395811,-0.836595 L 29.31365,20.322926 c 0.395811,-0.323849 0.971531,-0.323849 1.376338,0 l 16.911833,13.925278 c 0.242882,0.206898 0.386814,0.512747 0.386814,0.836595 z m 7.520367,-5.478354 -7.520367,-6.198006 V 10.949453 c 0,-0.593721 -0.485765,-1.0794859 -1.079477,-1.0794859 h -5.037571 c -0.593712,0 -1.079477,0.4857649 -1.079477,1.0794859 v 6.530843 l -8.051114,-6.629802 c -1.592231,-1.3133641 -3.895119,-1.3133641 -5.48735,0 L 4.4856325,29.606445 C 4.0268559,29.984263 3.9638901,30.66793 4.3417084,31.126707 l 2.2938909,2.788652 c 0.377819,0.458785 1.061485,0.521751 1.520262,0.143932 L 29.31365,16.634705 c 0.395811,-0.323841 0.971531,-0.323841 1.376338,0 l 21.157781,17.424586 c 0.458777,0.377819 1.142452,0.314853 1.52027,-0.143932 l 2.293891,-2.788652 c 0.377819,-0.467773 0.305849,-1.142444 -0.152928,-1.520262 z"
     id="path2"
     style="fill:#ffccaa;stroke-width:0.08995657"
     inkscape:export-xdpi="204"
     inkscape:export-ydpi="204" />
</svg>
